<svg xmlns="http://www.w3.org/2000/svg" width="120" height="120" viewBox="0 0 120 120">
  <rect width="120" height="120" rx="26" fill="#0a6358"/>
  <path d="M45 22 L45 37 C45.5 49 49 56 47 62 C45.5 66 41 67.5 36 67.5 L32.5 67.5 C29 67.5 29 75.5 32.5 75.5 L40 75.5 C52 88 72 87 80.5 74 C88.5 61.5 86.5 43 75 34.5 C68 29.5 58.5 29 53 33 L53 22 C53 18.5 45 18.5 45 22 Z" fill="#faf8f4"/>
  <path d="M58 42 C62 46.5 67 49 73 49.5" fill="none" stroke="#c8a24a" stroke-width="3.2" stroke-linecap="round"/>
</svg>
